<svg xmlns="http://www.w3.org/2000/svg" viewBox="0 0 24 24"
     width="24" height="24" fill="none" stroke="currentColor"
     stroke-width="0.5" stroke-linecap="round" stroke-linejoin="round">
  <!-- graffux/export-gif — phosphor/gif -->
  <path d="M12.81 8.22V15.78a0.27 0.27 0 0 1-0.54 0V8.22a0.27 0.27 0 0 1 0.54 0Zm6.21-0.27H15.24a0.27 0.27 0 0 0-0.27 0.27V15.78a0.27 0.27 0 0 0 0.54 0V12.27h2.97a0.27 0.27 0 0 0 0-0.54H15.51V8.49h3.51a0.27 0.27 0 0 0 0-0.54ZM9.84 11.73H8.22a0.27 0.27 0 0 0 0 0.54H9.57v1.35a1.89 1.89 0 0 1-3.78 0V10.38A1.89 1.89 0 0 1 7.68 8.49c0.878 0 1.688 0.608 1.899 1.417a0.27 0.27 0 1 0 0.522-0.135C9.83 8.717 8.811 7.95 7.68 7.95a2.43 2.43 0 0 0-2.43 2.43v3.24a2.43 2.43 0 0 0 4.86 0V12A0.27 0.27 0 0 0 9.84 11.73Z" fill="currentColor" stroke="none"/>
</svg>
