<svg xmlns="http://www.w3.org/2000/svg" viewBox="0 0 24 24"
     width="24" height="24" fill="none" stroke="currentColor"
     stroke-width="1.4" stroke-linecap="round" stroke-linejoin="round">
  <!-- graffux/path-select-group — The solid arrow with a whole object's bounds marching around it — it takes the object, not one node, and the bounds are what say so. -->
  <path d="M10.6,3.4L13.6,3.4 M15.6,3.4L18.6,3.4 M20.6,3.4L20.6,6.4 M20.6,8.4L20.6,11.4 M20.6,13.4L17.6,13.4 M15.6,13.4L12.6,13.4 M10.6,13.4L10.6,10.4 M10.6,8.4L10.6,5.4"/>
  <path d="M3.4,6.4L3.4,17.6L6.6,14.8L8.8,19.6L10.8,18.6L8.6,13.8L12.6,13.4Z"/>
  <path d="M3.4,6.4L3.4,17.6L6.6,14.8L8.8,19.6L10.8,18.6L8.6,13.8L12.6,13.4Z" fill="currentColor" stroke="none"/>
</svg>
