<svg xmlns="http://www.w3.org/2000/svg" viewBox="0 0 100 100">
  <defs>
    <clipPath id="r"><rect width="100" height="100" rx="22"/></clipPath>
    <mask id="pm" maskUnits="userSpaceOnUse" x="0" y="0" width="100" height="100">
      <rect width="100" height="100" fill="black"/>
      <path d="M27 27 L73 73" stroke="#fff" stroke-width="24" stroke-linecap="round" fill="none"/>
    </mask>
  </defs>
  <g clip-path="url(#r)">
    <rect width="100" height="100" fill="#14161d"/>
    <path d="M27 27 L73 73" stroke="#ff2d78" stroke-width="24" stroke-linecap="round" fill="none"/>
    <path d="M73 27 L27 73" stroke="#00e0d0" stroke-width="24" stroke-linecap="round" fill="none"/>
    <path d="M50 38.03 L61.97 50 L50 61.97 L38.03 50 Z" fill="#fff"/>
    <path d="M69.5 32 C71.5 44 71.8 52 71.8 58 C71.8 67 66 69 66 76 A7 7 0 1 0 80 76 C80 69 74.2 67 74.2 58 C74.2 52 74.5 44 76.5 32 Z" fill="#00e0d0"/>
    <g mask="url(#pm)"><path d="M69.5 32 C71.5 44 71.8 52 71.8 58 C71.8 67 66 69 66 76 A7 7 0 1 0 80 76 C80 69 74.2 67 74.2 58 C74.2 52 74.5 44 76.5 32 Z" fill="#fff"/></g>
  </g>
</svg>
